<svg width="203" height="40" viewBox="0 0 203 40" fill="none" xmlns="http://www.w3.org/2000/svg">
<g clip-path="url(#clip0_202_336)">
<path d="M25.0925 1.05386L21.1595 0L17.8451 12.3696L14.8528 1.20224L10.9197 2.2561L14.1527 14.3216L6.10008 6.26898L3.22089 9.14817L12.0536 17.981L1.05386 15.0336L0 18.9666L12.0186 22.187C11.881 21.5935 11.8082 20.9751 11.8082 20.3397C11.8082 15.8421 15.4542 12.1961 19.9518 12.1961C24.4494 12.1961 28.0954 15.8421 28.0954 20.3397C28.0954 20.971 28.0235 21.5856 27.8876 22.1756L38.8103 25.1023L39.8641 21.1693L27.7977 17.9361L38.7982 14.9885L37.7443 11.0555L25.6784 14.2885L33.731 6.23592L30.8518 3.35673L22.1416 12.067L25.0925 1.05386Z" fill="#FF820A"/>
<path d="M27.877 22.2214C27.5398 23.647 26.8279 24.9277 25.8511 25.9538L33.7641 33.8669L36.6433 30.9877L27.877 22.2214Z" fill="#FF820A"/>
<path d="M25.771 26.0366C24.7824 27.0463 23.5331 27.7998 22.1321 28.1881L25.0115 38.9341L28.9445 37.8802L25.771 26.0366Z" fill="#FF820A"/>
<path d="M21.9852 28.2274C21.3352 28.3945 20.6539 28.4833 19.9518 28.4833C19.1996 28.4833 18.4712 28.3813 17.7797 28.1904L14.8977 38.9462L18.8307 40L21.9852 28.2274Z" fill="#FF820A"/>
<path d="M17.6406 28.1506C16.261 27.743 15.0339 26.9799 14.0655 25.9673L6.13306 33.8998L9.01225 36.779L17.6406 28.1506Z" fill="#FF820A"/>
<path d="M13.9994 25.8971C13.0476 24.8781 12.3543 23.6145 12.0243 22.2109L1.06592 25.1472L2.11977 29.0802L13.9994 25.8971Z" fill="#FF820A"/>
<path d="M53.648 27L50.37 12.48H53.824L55.98 24.294H56.222L58.774 12.48H62.8L65.352 24.294H65.616L67.772 12.48H71.05L67.728 27H63.306L60.842 15.186H60.644L58.18 27H53.648ZM77.8461 27.308C76.8928 27.308 76.0421 27.176 75.2941 26.912C74.5608 26.648 73.9375 26.2667 73.4241 25.768C72.9108 25.2693 72.5148 24.6533 72.2361 23.92C71.9721 23.1867 71.8401 22.358 71.8401 21.434C71.8401 20.5247 71.9648 19.6887 72.2141 18.926C72.4781 18.1487 72.8595 17.4813 73.3581 16.924C73.8568 16.352 74.4655 15.912 75.1841 15.604C75.9028 15.296 76.7168 15.142 77.6261 15.142C78.5061 15.142 79.2908 15.2887 79.9801 15.582C80.6695 15.8607 81.2415 16.286 81.6961 16.858C82.1655 17.43 82.5028 18.134 82.7081 18.97C82.9281 19.7913 83.0088 20.7373 82.9501 21.808L73.8861 21.896V20.158L81.1241 20.092L80.0021 20.972C80.1048 20.1947 80.0535 19.5567 79.8481 19.058C79.6428 18.5593 79.3421 18.1927 78.9461 17.958C78.5648 17.7233 78.1395 17.606 77.6701 17.606C77.1128 17.606 76.6215 17.7527 76.1961 18.046C75.7708 18.3393 75.4408 18.772 75.2061 19.344C74.9715 19.9013 74.8541 20.576 74.8541 21.368C74.8541 22.6147 75.1255 23.5313 75.6681 24.118C76.2255 24.7047 76.9515 24.998 77.8461 24.998C78.2568 24.998 78.6015 24.9467 78.8801 24.844C79.1735 24.7267 79.4081 24.58 79.5841 24.404C79.7748 24.228 79.9215 24.03 80.0241 23.81C80.1415 23.59 80.2368 23.37 80.3101 23.15L83.0601 23.744C82.9281 24.2867 82.7301 24.778 82.4661 25.218C82.2168 25.6433 81.8795 26.0173 81.4541 26.34C81.0288 26.648 80.5155 26.8827 79.9141 27.044C79.3275 27.22 78.6381 27.308 77.8461 27.308ZM87.9888 27.308C87.3435 27.308 86.7715 27.1833 86.2728 26.934C85.7741 26.67 85.3855 26.296 85.1068 25.812C84.8281 25.328 84.6888 24.7267 84.6888 24.008C84.6888 23.3773 84.8061 22.8493 85.0408 22.424C85.2901 21.9987 85.6495 21.654 86.1188 21.39C86.5881 21.126 87.1675 20.906 87.8568 20.73C88.5461 20.554 89.3308 20.4 90.2108 20.268C90.6801 20.1947 91.0615 20.1287 91.3548 20.07C91.6628 19.9967 91.8901 19.8867 92.0368 19.74C92.1835 19.5787 92.2568 19.3513 92.2568 19.058C92.2568 18.6473 92.1101 18.2953 91.8168 18.002C91.5235 17.7087 91.0615 17.562 90.4308 17.562C90.0055 17.562 89.6095 17.6353 89.2428 17.782C88.8908 17.9287 88.5828 18.1487 88.3188 18.442C88.0695 18.7353 87.8861 19.1093 87.7688 19.564L84.9748 18.706C85.1508 18.1047 85.4001 17.584 85.7228 17.144C86.0601 16.704 86.4635 16.3373 86.9328 16.044C87.4021 15.736 87.9375 15.5087 88.5388 15.362C89.1401 15.2153 89.7928 15.142 90.4968 15.142C91.6261 15.142 92.5428 15.3253 93.2468 15.692C93.9655 16.044 94.5008 16.6013 94.8528 17.364C95.2048 18.112 95.3808 19.08 95.3808 20.268V22.248C95.3808 22.7613 95.3881 23.282 95.4028 23.81C95.4321 24.338 95.4615 24.8733 95.4908 25.416C95.5348 25.944 95.5788 26.472 95.6228 27H92.8288C92.7701 26.6333 92.7115 26.2153 92.6528 25.746C92.6088 25.262 92.5721 24.778 92.5428 24.294H92.1468C91.9415 24.8513 91.6481 25.3573 91.2668 25.812C90.8855 26.2667 90.4161 26.6333 89.8588 26.912C89.3161 27.176 88.6928 27.308 87.9888 27.308ZM89.3308 25.02C89.6095 25.02 89.8881 24.9687 90.1668 24.866C90.4601 24.7633 90.7388 24.624 91.0028 24.448C91.2815 24.2573 91.5308 24.0227 91.7508 23.744C91.9855 23.4653 92.1761 23.15 92.3228 22.798L92.2788 20.95L92.7848 21.06C92.5208 21.2507 92.2128 21.4047 91.8608 21.522C91.5088 21.6247 91.1421 21.7053 90.7608 21.764C90.3941 21.8227 90.0275 21.8887 89.6608 21.962C89.2941 22.0353 88.9641 22.1307 88.6708 22.248C88.3921 22.3653 88.1648 22.5267 87.9888 22.732C87.8275 22.9227 87.7468 23.194 87.7468 23.546C87.7468 24.0007 87.8935 24.36 88.1868 24.624C88.4801 24.888 88.8615 25.02 89.3308 25.02ZM102.442 27.264C101.151 27.264 100.198 26.9267 99.582 26.252C98.9806 25.5627 98.68 24.47 98.68 22.974V17.936H97.008L97.052 15.45H98.218C98.6726 15.45 99.01 15.384 99.23 15.252C99.45 15.12 99.582 14.878 99.626 14.526L99.912 12.876H101.716V15.45H104.642V18.024H101.716V22.842C101.716 23.37 101.841 23.7513 102.09 23.986C102.339 24.2207 102.721 24.338 103.234 24.338C103.513 24.338 103.777 24.3087 104.026 24.25C104.29 24.1913 104.517 24.096 104.708 23.964V26.912C104.253 27.0587 103.835 27.154 103.454 27.198C103.073 27.242 102.735 27.264 102.442 27.264ZM106.896 27V19.74V11.27H110.086V14.878C110.086 15.1713 110.071 15.4793 110.042 15.802C110.027 16.1247 109.991 16.4547 109.932 16.792C109.888 17.1147 109.837 17.4447 109.778 17.782C109.734 18.1193 109.683 18.4567 109.624 18.794H110.108C110.313 18.046 110.57 17.4007 110.878 16.858C111.201 16.3153 111.611 15.8973 112.11 15.604C112.609 15.296 113.239 15.142 114.002 15.142C115.351 15.142 116.363 15.6187 117.038 16.572C117.713 17.5107 118.05 18.9553 118.05 20.906V27H114.86V21.39C114.86 20.158 114.677 19.2487 114.31 18.662C113.958 18.0607 113.423 17.76 112.704 17.76C112.117 17.76 111.633 17.936 111.252 18.288C110.871 18.64 110.585 19.1167 110.394 19.718C110.203 20.3047 110.093 20.9647 110.064 21.698V27H106.896ZM126.143 27.308C125.19 27.308 124.339 27.176 123.591 26.912C122.858 26.648 122.234 26.2667 121.721 25.768C121.208 25.2693 120.812 24.6533 120.533 23.92C120.269 23.1867 120.137 22.358 120.137 21.434C120.137 20.5247 120.262 19.6887 120.511 18.926C120.775 18.1487 121.156 17.4813 121.655 16.924C122.154 16.352 122.762 15.912 123.481 15.604C124.2 15.296 125.014 15.142 125.923 15.142C126.803 15.142 127.588 15.2887 128.277 15.582C128.966 15.8607 129.538 16.286 129.993 16.858C130.462 17.43 130.8 18.134 131.005 18.97C131.225 19.7913 131.306 20.7373 131.247 21.808L122.183 21.896V20.158L129.421 20.092L128.299 20.972C128.402 20.1947 128.35 19.5567 128.145 19.058C127.94 18.5593 127.639 18.1927 127.243 17.958C126.862 17.7233 126.436 17.606 125.967 17.606C125.41 17.606 124.918 17.7527 124.493 18.046C124.068 18.3393 123.738 18.772 123.503 19.344C123.268 19.9013 123.151 20.576 123.151 21.368C123.151 22.6147 123.422 23.5313 123.965 24.118C124.522 24.7047 125.248 24.998 126.143 24.998C126.554 24.998 126.898 24.9467 127.177 24.844C127.47 24.7267 127.705 24.58 127.881 24.404C128.072 24.228 128.218 24.03 128.321 23.81C128.438 23.59 128.534 23.37 128.607 23.15L131.357 23.744C131.225 24.2867 131.027 24.778 130.763 25.218C130.514 25.6433 130.176 26.0173 129.751 26.34C129.326 26.648 128.812 26.8827 128.211 27.044C127.624 27.22 126.935 27.308 126.143 27.308ZM133.558 27V21.412V15.45H136.176L136.198 19.388H136.616C136.734 18.4053 136.932 17.606 137.21 16.99C137.504 16.374 137.907 15.9193 138.42 15.626C138.934 15.3327 139.572 15.186 140.334 15.186C140.466 15.186 140.606 15.1933 140.752 15.208C140.914 15.208 141.097 15.23 141.302 15.274L141.17 18.64C140.95 18.5373 140.708 18.464 140.444 18.42C140.18 18.376 139.946 18.354 139.74 18.354C139.168 18.354 138.677 18.486 138.266 18.75C137.856 19.014 137.518 19.3953 137.254 19.894C137.005 20.378 136.836 20.972 136.748 21.676V27H133.558ZM148.322 27V12.48H152.458L159.036 22.754H159.278L159.08 12.48H162.16V27H158.42L151.468 16.242H151.226L151.424 27H148.322ZM170.462 27.308C169.304 27.308 168.284 27.0807 167.404 26.626C166.524 26.1567 165.835 25.4747 165.336 24.58C164.838 23.6707 164.588 22.5413 164.588 21.192C164.588 19.8427 164.838 18.7207 165.336 17.826C165.85 16.9313 166.546 16.264 167.426 15.824C168.321 15.3693 169.333 15.142 170.462 15.142C171.621 15.142 172.64 15.3693 173.52 15.824C174.415 16.2787 175.112 16.9607 175.61 17.87C176.124 18.7647 176.38 19.8867 176.38 21.236C176.38 22.6 176.116 23.7367 175.588 24.646C175.075 25.5407 174.371 26.208 173.476 26.648C172.596 27.088 171.592 27.308 170.462 27.308ZM170.572 24.954C171.144 24.954 171.621 24.822 172.002 24.558C172.398 24.294 172.692 23.898 172.882 23.37C173.088 22.8273 173.19 22.1747 173.19 21.412C173.19 20.6053 173.08 19.9233 172.86 19.366C172.655 18.794 172.347 18.3613 171.936 18.068C171.526 17.76 171.005 17.606 170.374 17.606C169.832 17.606 169.362 17.738 168.966 18.002C168.57 18.2513 168.27 18.6473 168.064 19.19C167.859 19.718 167.756 20.3707 167.756 21.148C167.756 22.3947 168.006 23.3407 168.504 23.986C169.003 24.6313 169.692 24.954 170.572 24.954ZM180.306 27L177.446 15.45H180.746L182.374 24.492H182.792L184.728 15.45H188.534L190.536 24.492H190.954L192.538 15.45H195.772L192.89 27H188.534L186.73 18.024H186.356L184.64 27H180.306Z" fill="white"/>
</g>
<defs>
<clipPath id="clip0_202_336">
<rect width="203" height="40" fill="white"/>
</clipPath>
</defs>
</svg>
