<svg width="16" height="16" viewBox="0 0 16 16" fill="none" xmlns="http://www.w3.org/2000/svg">
<path d="M14.875 0.65625C15.125 0.40625 15.5312 0.59375 15.5312 0.90625V5.375C15.5312 5.59375 15.3438 5.75 15.1562 5.75H10.6562C10.3438 5.75 10.1562 5.375 10.4062 5.125L12.0938 3.4375C11 2.3125 9.46875 1.625 7.78125 1.625C4.5 1.625 1.84375 4.1875 1.65625 7.40625C1.625 7.625 1.46875 7.75 1.28125 7.75H0.40625C0.1875 7.75 0 7.59375 0.03125 7.375C0.21875 3.28125 3.625 0 7.78125 0C9.90625 0 11.8438 0.875 13.25 2.28125L14.875 0.65625ZM15.125 7.75C15.3438 7.75 15.5312 7.9375 15.5 8.15625C15.3125 12.25 11.9062 15.5 7.78125 15.5C5.625 15.5 3.6875 14.6562 2.28125 13.25L0.65625 14.875C0.40625 15.125 0.03125 14.9375 0.03125 14.625V10.125C0.03125 9.9375 0.1875 9.75 0.40625 9.75H4.875C5.1875 9.75 5.375 10.1562 5.125 10.4062L3.4375 12.0938C4.53125 13.2188 6.0625 13.875 7.78125 13.875C11.0312 13.875 13.6875 11.3438 13.875 8.125C13.9062 7.90625 14.0625 7.75 14.25 7.75H15.125Z" fill="white"/>
</svg>
